<?xml version="1.0" encoding="UTF-8" standalone="no"?>
<!DOCTYPE svg PUBLIC "-//W3C//DTD SVG 1.1//EN"
 "http://www.w3.org/Graphics/SVG/1.1/DTD/svg11.dtd">
<!-- Generated by graphviz version 2.40.1 (20161225.0304)
 -->
<!-- Title: dependencies Pages: 1 -->
<svg width="2209pt" height="284pt"
 viewBox="0.00 0.00 2209.00 284.00" xmlns="http://www.w3.org/2000/svg" xmlns:xlink="http://www.w3.org/1999/xlink">
<g id="graph0" class="graph" transform="scale(1 1) rotate(0) translate(4 280)">
<title>dependencies</title>
<polygon fill="#ffffff" stroke="transparent" points="-4,4 -4,-280 2205,-280 2205,4 -4,4"/>
<text text-anchor="start" x="1079.5091" y="-42.4" font-family="sans-serif" font-weight="bold" font-size="14.00" fill="#000000">Legend</text>
<polygon fill="#ffffb3" stroke="transparent" points="866.5,-10 866.5,-30 886.5,-30 886.5,-10 866.5,-10"/>
<text text-anchor="start" x="890.129" y="-15.4" font-family="sans-serif" font-size="14.00" fill="#000000"> &#160;Declarations</text>
<polygon fill="#8dd3c7" stroke="transparent" points="979.5,-10 979.5,-30 999.5,-30 999.5,-10 979.5,-10"/>
<text text-anchor="start" x="1003.2251" y="-15.4" font-family="sans-serif" font-size="14.00" fill="#000000"> &#160;Module</text>
<polygon fill="#80b1d3" stroke="transparent" points="1065.5,-10 1065.5,-30 1085.5,-30 1085.5,-10 1065.5,-10"/>
<text text-anchor="start" x="1089.2812" y="-15.4" font-family="sans-serif" font-size="14.00" fill="#000000"> &#160;Bootstrap</text>
<polygon fill="#fdb462" stroke="transparent" points="1162.5,-10 1162.5,-30 1182.5,-30 1182.5,-10 1162.5,-10"/>
<text text-anchor="start" x="1186.1732" y="-15.4" font-family="sans-serif" font-size="14.00" fill="#000000"> &#160;Providers</text>
<polygon fill="#fb8072" stroke="transparent" points="1258.5,-10 1258.5,-30 1278.5,-30 1278.5,-10 1258.5,-10"/>
<text text-anchor="start" x="1282.2258" y="-15.4" font-family="sans-serif" font-size="14.00" fill="#000000"> &#160;Exports</text>
<g id="clust1" class="cluster">
<title>cluster_UIModule</title>
<polygon fill="none" stroke="#000000" stroke-dasharray="1,5" points="8,-70 8,-268 2193,-268 2193,-70 8,-70"/>
</g>
<g id="clust2" class="cluster">
<title>cluster_UIModule_declarations</title>
<polygon fill="none" stroke="#000000" points="41,-78 41,-130 2169,-130 2169,-78 41,-78"/>
</g>
<g id="clust16" class="cluster">
<title>cluster_UIModule_exports</title>
<polygon fill="none" stroke="#000000" points="16,-208 16,-260 2185,-260 2185,-208 16,-208"/>
</g>
<!-- AppAsideComponent -->
<g id="node1" class="node">
<title>AppAsideComponent</title>
<polygon fill="#ffffb3" stroke="#000000" points="2161.0954,-122 2022.9046,-122 2022.9046,-86 2161.0954,-86 2161.0954,-122"/>
<text text-anchor="middle" x="2092" y="-99.8" font-family="Times,serif" font-size="14.00" fill="#000000">AppAsideComponent</text>
</g>
<!-- UIModule -->
<g id="node13" class="node">
<title>UIModule</title>
<polygon fill="#8dd3c7" stroke="#000000" points="1070.3177,-187 1067.3177,-191 1046.3177,-191 1043.3177,-187 995.6823,-187 995.6823,-151 1070.3177,-151 1070.3177,-187"/>
<text text-anchor="middle" x="1033" y="-164.8" font-family="Times,serif" font-size="14.00" fill="#000000">UIModule</text>
</g>
<!-- AppAsideComponent&#45;&gt;UIModule -->
<g id="edge1" class="edge">
<title>AppAsideComponent&#45;&gt;UIModule</title>
<path fill="none" stroke="#000000" d="M2029.0773,-122.1686C2029.0773,-141.0898 2029.0773,-168 2029.0773,-168 2029.0773,-168 1080.2295,-168 1080.2295,-168"/>
<polygon fill="#000000" stroke="#000000" points="1080.2295,-164.5001 1070.2295,-168 1080.2294,-171.5001 1080.2295,-164.5001"/>
</g>
<!-- AppBreadcrumbsComponent -->
<g id="node2" class="node">
<title>AppBreadcrumbsComponent</title>
<polygon fill="#ffffb3" stroke="#000000" points="2005.0758,-122 1824.9242,-122 1824.9242,-86 2005.0758,-86 2005.0758,-122"/>
<text text-anchor="middle" x="1915" y="-99.8" font-family="Times,serif" font-size="14.00" fill="#000000">AppBreadcrumbsComponent</text>
</g>
<!-- AppBreadcrumbsComponent&#45;&gt;UIModule -->
<g id="edge2" class="edge">
<title>AppBreadcrumbsComponent&#45;&gt;UIModule</title>
<path fill="none" stroke="#000000" d="M1829.0871,-122.302C1829.0871,-140.2699 1829.0871,-165 1829.0871,-165 1829.0871,-165 1080.3292,-165 1080.3292,-165"/>
<polygon fill="#000000" stroke="#000000" points="1080.3292,-161.5001 1070.3292,-165 1080.3291,-168.5001 1080.3292,-161.5001"/>
</g>
<!-- AppFooterComponent -->
<g id="node3" class="node">
<title>AppFooterComponent</title>
<polygon fill="#ffffb3" stroke="#000000" points="1806.9874,-122 1665.0126,-122 1665.0126,-86 1806.9874,-86 1806.9874,-122"/>
<text text-anchor="middle" x="1736" y="-99.8" font-family="Times,serif" font-size="14.00" fill="#000000">AppFooterComponent</text>
</g>
<!-- AppFooterComponent&#45;&gt;UIModule -->
<g id="edge3" class="edge">
<title>AppFooterComponent&#45;&gt;UIModule</title>
<path fill="none" stroke="#000000" d="M1761.0812,-122.0225C1761.0812,-139.3734 1761.0812,-163 1761.0812,-163 1761.0812,-163 1080.3588,-163 1080.3588,-163"/>
<polygon fill="#000000" stroke="#000000" points="1080.3588,-159.5001 1070.3588,-163 1080.3587,-166.5001 1080.3588,-159.5001"/>
</g>
<!-- AppHeaderComponent -->
<g id="node4" class="node">
<title>AppHeaderComponent</title>
<polygon fill="#ffffb3" stroke="#000000" points="1646.8501,-122 1501.1499,-122 1501.1499,-86 1646.8501,-86 1646.8501,-122"/>
<text text-anchor="middle" x="1574" y="-99.8" font-family="Times,serif" font-size="14.00" fill="#000000">AppHeaderComponent</text>
</g>
<!-- AppHeaderComponent&#45;&gt;UIModule -->
<g id="edge4" class="edge">
<title>AppHeaderComponent&#45;&gt;UIModule</title>
<path fill="none" stroke="#000000" d="M1598.725,-122.027C1598.725,-138.3976 1598.725,-160 1598.725,-160 1598.725,-160 1080.5569,-160 1080.5569,-160"/>
<polygon fill="#000000" stroke="#000000" points="1080.557,-156.5001 1070.5569,-160 1080.5569,-163.5001 1080.557,-156.5001"/>
</g>
<!-- AppSidebarComponent -->
<g id="node5" class="node">
<title>AppSidebarComponent</title>
<polygon fill="#ffffb3" stroke="#000000" points="1483.2021,-122 1334.7979,-122 1334.7979,-86 1483.2021,-86 1483.2021,-122"/>
<text text-anchor="middle" x="1409" y="-99.8" font-family="Times,serif" font-size="14.00" fill="#000000">AppSidebarComponent</text>
</g>
<!-- AppSidebarComponent&#45;&gt;UIModule -->
<g id="edge5" class="edge">
<title>AppSidebarComponent&#45;&gt;UIModule</title>
<path fill="none" stroke="#000000" d="M1384.2997,-122.2396C1384.2997,-137.5706 1384.2997,-157 1384.2997,-157 1384.2997,-157 1080.2626,-157 1080.2626,-157"/>
<polygon fill="#000000" stroke="#000000" points="1080.2627,-153.5001 1070.2626,-157 1080.2626,-160.5001 1080.2627,-153.5001"/>
</g>
<!-- AppSidebarFooterComponent -->
<g id="node6" class="node">
<title>AppSidebarFooterComponent</title>
<polygon fill="#ffffb3" stroke="#000000" points="1317.2506,-122 1132.7494,-122 1132.7494,-86 1317.2506,-86 1317.2506,-122"/>
<text text-anchor="middle" x="1225" y="-99.8" font-family="Times,serif" font-size="14.00" fill="#000000">AppSidebarFooterComponent</text>
</g>
<!-- AppSidebarFooterComponent&#45;&gt;UIModule -->
<g id="edge6" class="edge">
<title>AppSidebarFooterComponent&#45;&gt;UIModule</title>
<path fill="none" stroke="#000000" d="M1193.1249,-122.0511C1193.1249,-136.373 1193.1249,-154 1193.1249,-154 1193.1249,-154 1080.5422,-154 1080.5422,-154"/>
<polygon fill="#000000" stroke="#000000" points="1080.5422,-150.5001 1070.5422,-154 1080.5421,-157.5001 1080.5422,-150.5001"/>
</g>
<!-- AppSidebarFormComponent -->
<g id="node7" class="node">
<title>AppSidebarFormComponent</title>
<polygon fill="#ffffb3" stroke="#000000" points="1114.0364,-122 935.9636,-122 935.9636,-86 1114.0364,-86 1114.0364,-122"/>
<text text-anchor="middle" x="1025" y="-99.8" font-family="Times,serif" font-size="14.00" fill="#000000">AppSidebarFormComponent</text>
</g>
<!-- AppSidebarFormComponent&#45;&gt;UIModule -->
<g id="edge7" class="edge">
<title>AppSidebarFormComponent&#45;&gt;UIModule</title>
<path fill="none" stroke="#000000" d="M1033,-122.1061C1033,-122.1061 1033,-140.991 1033,-140.991"/>
<polygon fill="#000000" stroke="#000000" points="1029.5001,-140.9909 1033,-150.991 1036.5001,-140.991 1029.5001,-140.9909"/>
</g>
<!-- AppSidebarHeaderComponent -->
<g id="node8" class="node">
<title>AppSidebarHeaderComponent</title>
<polygon fill="#ffffb3" stroke="#000000" points="917.1134,-122 728.8866,-122 728.8866,-86 917.1134,-86 917.1134,-122"/>
<text text-anchor="middle" x="823" y="-99.8" font-family="Times,serif" font-size="14.00" fill="#000000">AppSidebarHeaderComponent</text>
</g>
<!-- AppSidebarHeaderComponent&#45;&gt;UIModule -->
<g id="edge8" class="edge">
<title>AppSidebarHeaderComponent&#45;&gt;UIModule</title>
<path fill="none" stroke="#000000" d="M912.6815,-122.1243C912.6815,-136.7832 912.6815,-155 912.6815,-155 912.6815,-155 985.59,-155 985.59,-155"/>
<polygon fill="#000000" stroke="#000000" points="985.59,-158.5001 995.59,-155 985.59,-151.5001 985.59,-158.5001"/>
</g>
<!-- AppSidebarMinimizerComponent -->
<g id="node9" class="node">
<title>AppSidebarMinimizerComponent</title>
<polygon fill="#ffffb3" stroke="#000000" points="710.799,-122 503.201,-122 503.201,-86 710.799,-86 710.799,-122"/>
<text text-anchor="middle" x="607" y="-99.8" font-family="Times,serif" font-size="14.00" fill="#000000">AppSidebarMinimizerComponent</text>
</g>
<!-- AppSidebarMinimizerComponent&#45;&gt;UIModule -->
<g id="edge9" class="edge">
<title>AppSidebarMinimizerComponent&#45;&gt;UIModule</title>
<path fill="none" stroke="#000000" d="M704.5244,-122.2819C704.5244,-137.9478 704.5244,-158 704.5244,-158 704.5244,-158 985.6395,-158 985.6395,-158"/>
<polygon fill="#000000" stroke="#000000" points="985.6395,-161.5001 995.6395,-158 985.6394,-154.5001 985.6395,-161.5001"/>
</g>
<!-- APP_SIDEBAR_NAV -->
<g id="node10" class="node">
<title>APP_SIDEBAR_NAV</title>
<polygon fill="#ffffb3" stroke="#000000" points="484.8739,-122 339.1261,-122 339.1261,-86 484.8739,-86 484.8739,-122"/>
<text text-anchor="middle" x="412" y="-99.8" font-family="Times,serif" font-size="14.00" fill="#000000">APP_SIDEBAR_NAV</text>
</g>
<!-- APP_SIDEBAR_NAV&#45;&gt;UIModule -->
<g id="edge10" class="edge">
<title>APP_SIDEBAR_NAV&#45;&gt;UIModule</title>
<path fill="none" stroke="#000000" d="M477.3119,-122.0352C477.3119,-138.7344 477.3119,-161 477.3119,-161 477.3119,-161 985.6769,-161 985.6769,-161"/>
<polygon fill="#000000" stroke="#000000" points="985.6769,-164.5001 995.6769,-161 985.6768,-157.5001 985.6769,-164.5001"/>
</g>
<!-- AsideToggleDirective -->
<g id="node11" class="node">
<title>AsideToggleDirective</title>
<polygon fill="#ffffb3" stroke="#000000" points="321.3976,-122 180.6024,-122 180.6024,-86 321.3976,-86 321.3976,-122"/>
<text text-anchor="middle" x="251" y="-99.8" font-family="Times,serif" font-size="14.00" fill="#000000">AsideToggleDirective</text>
</g>
<!-- AsideToggleDirective&#45;&gt;UIModule -->
<g id="edge11" class="edge">
<title>AsideToggleDirective&#45;&gt;UIModule</title>
<path fill="none" stroke="#000000" d="M311.1308,-122.302C311.1308,-140.2699 311.1308,-165 311.1308,-165 311.1308,-165 985.7093,-165 985.7093,-165"/>
<polygon fill="#000000" stroke="#000000" points="985.7093,-168.5001 995.7093,-165 985.7092,-161.5001 985.7093,-168.5001"/>
</g>
<!-- ReplaceDirective -->
<g id="node12" class="node">
<title>ReplaceDirective</title>
<polygon fill="#ffffb3" stroke="#000000" points="162.6685,-122 49.3315,-122 49.3315,-86 162.6685,-86 162.6685,-122"/>
<text text-anchor="middle" x="106" y="-99.8" font-family="Times,serif" font-size="14.00" fill="#000000">ReplaceDirective</text>
</g>
<!-- ReplaceDirective&#45;&gt;UIModule -->
<g id="edge12" class="edge">
<title>ReplaceDirective&#45;&gt;UIModule</title>
<path fill="none" stroke="#000000" d="M149.1929,-122.1686C149.1929,-141.0898 149.1929,-168 149.1929,-168 149.1929,-168 985.5884,-168 985.5884,-168"/>
<polygon fill="#000000" stroke="#000000" points="985.5885,-171.5001 995.5884,-168 985.5884,-164.5001 985.5885,-171.5001"/>
</g>
<!-- AppAsideComponent  -->
<g id="node14" class="node">
<title>AppAsideComponent </title>
<polygon fill="#fb8072" stroke="#000000" points="2176.596,-252 2035.404,-252 2035.404,-216 2176.596,-216 2176.596,-252"/>
<text text-anchor="middle" x="2106" y="-229.8" font-family="Times,serif" font-size="14.00" fill="#000000">AppAsideComponent </text>
</g>
<!-- UIModule&#45;&gt;AppAsideComponent  -->
<g id="edge13" class="edge">
<title>UIModule&#45;&gt;AppAsideComponent </title>
<path fill="none" stroke="#000000" stroke-dasharray="5,2" d="M1070.2838,-171C1258.8033,-171 2098.125,-171 2098.125,-171 2098.125,-171 2098.125,-205.7778 2098.125,-205.7778"/>
<polygon fill="#000000" stroke="#000000" points="2094.6251,-205.7778 2098.125,-215.7778 2101.6251,-205.7778 2094.6251,-205.7778"/>
</g>
<!-- AppBreadcrumbsComponent  -->
<g id="node15" class="node">
<title>AppBreadcrumbsComponent </title>
<polygon fill="#fb8072" stroke="#000000" points="2016.5763,-252 1833.4237,-252 1833.4237,-216 2016.5763,-216 2016.5763,-252"/>
<text text-anchor="middle" x="1925" y="-229.8" font-family="Times,serif" font-size="14.00" fill="#000000">AppBreadcrumbsComponent </text>
</g>
<!-- UIModule&#45;&gt;AppBreadcrumbsComponent  -->
<g id="edge14" class="edge">
<title>UIModule&#45;&gt;AppBreadcrumbsComponent </title>
<path fill="none" stroke="#000000" stroke-dasharray="5,2" d="M1070.2281,-174C1238.4121,-174 1919.125,-174 1919.125,-174 1919.125,-174 1919.125,-205.998 1919.125,-205.998"/>
<polygon fill="#000000" stroke="#000000" points="1915.6251,-205.998 1919.125,-215.998 1922.6251,-205.9981 1915.6251,-205.998"/>
</g>
<!-- AppFooterComponent  -->
<g id="node16" class="node">
<title>AppFooterComponent </title>
<polygon fill="#fb8072" stroke="#000000" points="1814.9882,-252 1669.0118,-252 1669.0118,-216 1814.9882,-216 1814.9882,-252"/>
<text text-anchor="middle" x="1742" y="-229.8" font-family="Times,serif" font-size="14.00" fill="#000000">AppFooterComponent </text>
</g>
<!-- UIModule&#45;&gt;AppFooterComponent  -->
<g id="edge15" class="edge">
<title>UIModule&#45;&gt;AppFooterComponent </title>
<path fill="none" stroke="#000000" stroke-dasharray="5,2" d="M1070.1608,-176C1212.5142,-176 1715.1688,-176 1715.1688,-176 1715.1688,-176 1715.1688,-205.9664 1715.1688,-205.9664"/>
<polygon fill="#000000" stroke="#000000" points="1711.6689,-205.9663 1715.1688,-215.9664 1718.6689,-205.9664 1711.6689,-205.9663"/>
</g>
<!-- AppHeaderComponent  -->
<g id="node17" class="node">
<title>AppHeaderComponent </title>
<polygon fill="#fb8072" stroke="#000000" points="1651.8504,-252 1502.1496,-252 1502.1496,-216 1651.8504,-216 1651.8504,-252"/>
<text text-anchor="middle" x="1577" y="-229.8" font-family="Times,serif" font-size="14.00" fill="#000000">AppHeaderComponent </text>
</g>
<!-- UIModule&#45;&gt;AppHeaderComponent  -->
<g id="edge16" class="edge">
<title>UIModule&#45;&gt;AppHeaderComponent </title>
<path fill="none" stroke="#000000" stroke-dasharray="5,2" d="M1070.2191,-179C1188.8829,-179 1550.525,-179 1550.525,-179 1550.525,-179 1550.525,-205.9909 1550.525,-205.9909"/>
<polygon fill="#000000" stroke="#000000" points="1547.0251,-205.9909 1550.525,-215.9909 1554.0251,-205.991 1547.0251,-205.9909"/>
</g>
<!-- AppSidebarComponent  -->
<g id="node18" class="node">
<title>AppSidebarComponent </title>
<polygon fill="#fb8072" stroke="#000000" points="1483.7023,-252 1332.2977,-252 1332.2977,-216 1483.7023,-216 1483.7023,-252"/>
<text text-anchor="middle" x="1408" y="-229.8" font-family="Times,serif" font-size="14.00" fill="#000000">AppSidebarComponent </text>
</g>
<!-- UIModule&#45;&gt;AppSidebarComponent  -->
<g id="edge17" class="edge">
<title>UIModule&#45;&gt;AppSidebarComponent </title>
<path fill="none" stroke="#000000" stroke-dasharray="5,2" d="M1070.3371,-182C1169.811,-182 1433.7003,-182 1433.7003,-182 1433.7003,-182 1433.7003,-205.8129 1433.7003,-205.8129"/>
<polygon fill="#000000" stroke="#000000" points="1430.2004,-205.8129 1433.7003,-215.8129 1437.2004,-205.813 1430.2004,-205.8129"/>
</g>
<!-- AppSidebarFooterComponent  -->
<g id="node19" class="node">
<title>AppSidebarFooterComponent </title>
<polygon fill="#fb8072" stroke="#000000" points="1314.2506,-252 1125.7494,-252 1125.7494,-216 1314.2506,-216 1314.2506,-252"/>
<text text-anchor="middle" x="1220" y="-229.8" font-family="Times,serif" font-size="14.00" fill="#000000">AppSidebarFooterComponent </text>
</g>
<!-- UIModule&#45;&gt;AppSidebarFooterComponent  -->
<g id="edge18" class="edge">
<title>UIModule&#45;&gt;AppSidebarFooterComponent </title>
<path fill="none" stroke="#000000" stroke-dasharray="5,2" d="M1070.426,-185C1133.3713,-185 1253.6251,-185 1253.6251,-185 1253.6251,-185 1253.6251,-205.7542 1253.6251,-205.7542"/>
<polygon fill="#000000" stroke="#000000" points="1250.1252,-205.7542 1253.6251,-215.7542 1257.1252,-205.7542 1250.1252,-205.7542"/>
</g>
<!-- AppSidebarFormComponent  -->
<g id="node20" class="node">
<title>AppSidebarFormComponent </title>
<polygon fill="#fb8072" stroke="#000000" points="1108.0358,-252 925.9642,-252 925.9642,-216 1108.0358,-216 1108.0358,-252"/>
<text text-anchor="middle" x="1017" y="-229.8" font-family="Times,serif" font-size="14.00" fill="#000000">AppSidebarFormComponent </text>
</g>
<!-- UIModule&#45;&gt;AppSidebarFormComponent  -->
<g id="edge19" class="edge">
<title>UIModule&#45;&gt;AppSidebarFormComponent </title>
<path fill="none" stroke="#000000" stroke-dasharray="5,2" d="M1033,-187.1061C1033,-187.1061 1033,-205.991 1033,-205.991"/>
<polygon fill="#000000" stroke="#000000" points="1029.5001,-205.9909 1033,-215.991 1036.5001,-205.991 1029.5001,-205.9909"/>
</g>
<!-- AppSidebarHeaderComponent  -->
<g id="node21" class="node">
<title>AppSidebarHeaderComponent </title>
<polygon fill="#fb8072" stroke="#000000" points="908.113,-252 715.887,-252 715.887,-216 908.113,-216 908.113,-252"/>
<text text-anchor="middle" x="812" y="-229.8" font-family="Times,serif" font-size="14.00" fill="#000000">AppSidebarHeaderComponent </text>
</g>
<!-- UIModule&#45;&gt;AppSidebarHeaderComponent  -->
<g id="edge20" class="edge">
<title>UIModule&#45;&gt;AppSidebarHeaderComponent </title>
<path fill="none" stroke="#000000" stroke-dasharray="5,2" d="M995.6152,-184C934.1237,-184 818.375,-184 818.375,-184 818.375,-184 818.375,-205.9489 818.375,-205.9489"/>
<polygon fill="#000000" stroke="#000000" points="814.8751,-205.9488 818.375,-215.9489 821.8751,-205.9489 814.8751,-205.9488"/>
</g>
<!-- AppSidebarMinimizerComponent  -->
<g id="node22" class="node">
<title>AppSidebarMinimizerComponent </title>
<polygon fill="#fb8072" stroke="#000000" points="698.2989,-252 487.7011,-252 487.7011,-216 698.2989,-216 698.2989,-252"/>
<text text-anchor="middle" x="593" y="-229.8" font-family="Times,serif" font-size="14.00" fill="#000000">AppSidebarMinimizerComponent </text>
</g>
<!-- UIModule&#45;&gt;AppSidebarMinimizerComponent  -->
<g id="edge21" class="edge">
<title>UIModule&#45;&gt;AppSidebarMinimizerComponent </title>
<path fill="none" stroke="#000000" stroke-dasharray="5,2" d="M995.7833,-181C890.9654,-181 600.875,-181 600.875,-181 600.875,-181 600.875,-205.7604 600.875,-205.7604"/>
<polygon fill="#000000" stroke="#000000" points="597.3751,-205.7604 600.875,-215.7604 604.3751,-205.7604 597.3751,-205.7604"/>
</g>
<!-- APP_SIDEBAR_NAV  -->
<g id="node23" class="node">
<title>APP_SIDEBAR_NAV </title>
<polygon fill="#fb8072" stroke="#000000" points="469.8743,-252 320.1257,-252 320.1257,-216 469.8743,-216 469.8743,-252"/>
<text text-anchor="middle" x="395" y="-229.8" font-family="Times,serif" font-size="14.00" fill="#000000">APP_SIDEBAR_NAV </text>
</g>
<!-- UIModule&#45;&gt;APP_SIDEBAR_NAV  -->
<g id="edge22" class="edge">
<title>UIModule&#45;&gt;APP_SIDEBAR_NAV </title>
<path fill="none" stroke="#000000" stroke-dasharray="5,2" d="M995.5592,-178C860.2279,-178 404.375,-178 404.375,-178 404.375,-178 404.375,-205.973 404.375,-205.973"/>
<polygon fill="#000000" stroke="#000000" points="400.8751,-205.973 404.375,-215.973 407.8751,-205.973 400.8751,-205.973"/>
</g>
<!-- AsideToggleDirective  -->
<g id="node24" class="node">
<title>AsideToggleDirective </title>
<polygon fill="#fb8072" stroke="#000000" points="301.897,-252 158.103,-252 158.103,-216 301.897,-216 301.897,-252"/>
<text text-anchor="middle" x="230" y="-229.8" font-family="Times,serif" font-size="14.00" fill="#000000">AsideToggleDirective </text>
</g>
<!-- UIModule&#45;&gt;AsideToggleDirective  -->
<g id="edge23" class="edge">
<title>UIModule&#45;&gt;AsideToggleDirective </title>
<path fill="none" stroke="#000000" stroke-dasharray="5,2" d="M995.6159,-174C838.7011,-174 241.375,-174 241.375,-174 241.375,-174 241.375,-205.998 241.375,-205.998"/>
<polygon fill="#000000" stroke="#000000" points="237.8751,-205.998 241.375,-215.998 244.8751,-205.9981 237.8751,-205.998"/>
</g>
<!-- ReplaceDirective  -->
<g id="node25" class="node">
<title>ReplaceDirective </title>
<polygon fill="#fb8072" stroke="#000000" points="140.1689,-252 23.8311,-252 23.8311,-216 140.1689,-216 140.1689,-252"/>
<text text-anchor="middle" x="82" y="-229.8" font-family="Times,serif" font-size="14.00" fill="#000000">ReplaceDirective </text>
</g>
<!-- UIModule&#45;&gt;ReplaceDirective  -->
<g id="edge24" class="edge">
<title>UIModule&#45;&gt;ReplaceDirective </title>
<path fill="none" stroke="#000000" stroke-dasharray="5,2" d="M995.6455,-171C821.1655,-171 94.875,-171 94.875,-171 94.875,-171 94.875,-205.7778 94.875,-205.7778"/>
<polygon fill="#000000" stroke="#000000" points="91.3751,-205.7778 94.875,-215.7778 98.3751,-205.7778 91.3751,-205.7778"/>
</g>
</g>
</svg>
